<svg width="61" height="61" viewBox="0 0 61 61" fill="none" xmlns="http://www.w3.org/2000/svg">
<path d="M28.3982 0.0127258C26.1807 0.225857 24.6151 0.475521 23.0981 0.859154C14.9104 2.92955 8.04459 8.16036 3.88979 15.4859C3.4207 16.3019 2.47034 18.2871 2.14137 19.1274C1.1118 21.7397 0.48432 24.2486 0.118796 27.1959C-0.0395985 28.4746 -0.0395985 32.4997 0.118796 33.7724C0.709727 38.6196 2.18401 42.8335 4.66349 46.7733C8.45276 52.8018 14.2768 57.3141 21.1487 59.5489C25.2852 60.8947 29.7446 61.3087 34.338 60.7729C38.8218 60.2492 43.4396 58.532 47.4055 55.9074C53.0224 52.1868 57.2077 46.7611 59.413 40.3185C60.1136 38.2786 60.5888 36.1473 60.8812 33.7724C61.0396 32.4936 61.0396 28.4685 60.8812 27.1959C60.5157 24.2547 59.8882 21.7337 58.8586 19.1274C58.5297 18.2871 57.5793 16.3019 57.1102 15.4859C52.9554 8.16645 46.0835 2.92955 37.8958 0.859154C36.7931 0.579041 35.2153 0.298931 33.7897 0.122337C33.1988 0.049263 32.352 0.0188179 30.8046 0.00663757C29.6166 -0.00554276 28.5323 0.000549316 28.3982 0.0127258ZM29.2207 4.33012C29.306 4.37275 29.6898 4.799 30.0736 5.27398C30.4574 5.74895 30.9874 6.40661 31.2493 6.72935C31.5113 7.05209 31.755 7.35656 31.7976 7.40527C31.8403 7.45399 32.1875 7.89243 32.5774 8.37958C32.9673 8.86673 33.3145 9.32344 33.3511 9.39651C33.4668 9.60964 33.4364 10.0724 33.2963 10.3221C33.1927 10.5048 31.3712 12.0393 30.1406 12.9771C30.0126 13.0745 29.574 13.4277 29.1658 13.7565C28.2947 14.4629 28.1789 14.5299 27.8195 14.5299C27.1676 14.5299 26.7534 14.0306 26.8326 13.3485C26.8691 13.0441 27.1494 12.7579 28.4713 11.7105C29.0135 11.2842 29.4887 10.8884 29.5375 10.8336C29.6106 10.7423 29.5557 10.7362 28.8551 10.7788C23.0372 11.1015 17.4629 14.2254 14.0148 19.0969C12.0715 21.8372 10.9566 24.7479 10.5058 28.2615C10.4022 29.0775 10.4022 32.0309 10.5058 32.7981C10.853 35.2948 11.4013 37.1581 12.3822 39.1616C13.4239 41.2807 14.6301 42.9431 16.3237 44.5933C17.4447 45.6833 18.5047 46.4993 20.0521 47.4553C20.3993 47.6746 21.7457 48.3627 22.1539 48.5392C22.5925 48.7219 22.8057 48.9107 22.9154 49.2091C23.1651 49.8546 22.69 50.5792 22.0076 50.5792C21.4533 50.5792 18.7606 49.1482 17.2863 48.0643C15.7511 46.9438 14.1732 45.4154 12.8573 43.7834C12.5588 43.4059 11.7851 42.2611 11.377 41.5851C10.4083 39.9654 9.54934 37.901 9.06806 36.0072C8.64771 34.3753 8.5015 33.3888 8.37966 31.5315C8.29437 30.1005 8.37356 28.7547 8.66598 26.8914C8.86702 25.6187 9.39094 23.664 9.78693 22.7201C9.8113 22.6532 9.87831 22.4887 9.92704 22.3548C10.1098 21.8615 10.7312 20.5523 11.0724 19.9495C12.175 17.9826 13.1985 16.6429 14.8373 15.017C16.8964 12.9771 19.2236 11.4304 21.898 10.3221C21.9711 10.2917 22.0929 10.2429 22.1721 10.2064C22.5133 10.0603 23.3845 9.76796 24.146 9.54266C25.7482 9.07986 27.521 8.78757 29.2389 8.7084C29.9517 8.67796 30.1345 8.64751 30.1101 8.58662C30.0918 8.54399 29.574 7.88025 28.9648 7.11907C28.3495 6.35789 27.8134 5.65152 27.7707 5.56018C27.6063 5.18873 27.7403 4.71984 28.0936 4.43973C28.4287 4.17179 28.8369 4.12917 29.2207 4.33012ZM38.7304 10.4561C42.2882 11.948 45.5718 14.6151 47.9051 17.9095C49.7997 20.5828 51.0425 23.6031 51.6395 26.9827C51.9929 28.9983 51.9929 32.0613 51.6334 34.0464C51.5299 34.6067 51.2862 35.7271 51.1765 36.1229C51.1217 36.3239 51.0608 36.5614 51.0303 36.6649C50.9511 36.9694 50.6892 37.7245 50.4637 38.3151C48.9285 42.3159 46.1627 45.8173 42.5319 48.3566C41.4718 49.0995 39.9062 49.9763 38.9071 50.3904C38.7243 50.4696 38.4928 50.567 38.3892 50.6157C38.109 50.7436 37.2378 51.0542 36.519 51.2795C34.7401 51.8458 32.4251 52.2233 30.762 52.2233C30.299 52.2233 30.1954 52.2416 30.1954 52.3147C30.1954 52.3634 30.7071 53.0393 31.3285 53.8127C32.5591 55.3411 32.681 55.5482 32.5591 55.9805C32.4738 56.285 32.2972 56.5286 32.0657 56.6443C31.8098 56.7782 31.3407 56.7721 31.097 56.626C30.9874 56.5651 30.5 56.017 30.0126 55.4142C29.5253 54.8053 28.648 53.7152 28.0571 52.9784C27.4661 52.2477 26.9544 51.584 26.9118 51.5109C26.8752 51.4378 26.8448 51.2612 26.8448 51.1151C26.8448 50.7071 27.0763 50.4209 28.0327 49.6597C28.5018 49.2822 29.574 48.4235 30.4086 47.7537C31.2493 47.0778 32.0108 46.4932 32.1022 46.4506C32.4373 46.3044 32.9673 46.408 33.1866 46.6637C33.6313 47.163 33.5704 47.7963 33.0343 48.2348C32.3033 48.8315 30.9386 49.9337 30.8412 50.0068C30.7741 50.0494 30.7376 50.1103 30.762 50.1286C30.8594 50.2321 32.6018 50.092 33.607 49.9033C38.3588 49.0203 42.4831 46.5724 45.5353 42.8274C47.2532 40.7204 48.5326 38.169 49.2697 35.4166C49.9459 32.8651 50.0678 29.79 49.5987 27.1045C49.288 25.3325 48.7275 23.6031 47.9112 21.9103C46.3089 18.5733 43.8112 15.766 40.6433 13.7383C39.9915 13.3242 38.4014 12.4899 37.908 12.3012C37.1221 12.0089 36.8662 11.2233 37.3658 10.6327C37.7008 10.2308 38.0846 10.182 38.7304 10.4561ZM38.1517 17.605C38.371 17.7451 38.572 18.1044 38.9802 19.0604C39.7356 20.8324 40.1377 22.1051 40.5763 24.0598C40.82 25.1498 40.8992 27.1471 40.7408 28.2311C40.6677 28.7365 40.424 29.7839 40.2169 30.5146C40.0646 31.0565 39.431 32.4328 39.0776 33.0052C38.0237 34.7041 36.5555 36.2447 34.9838 37.2982C33.8689 38.0472 31.8646 38.985 30.8168 39.2468C29.3973 39.6 27.7829 39.5817 26.4731 39.192C25.8761 39.0154 24.81 38.5222 24.2861 38.1872C23.354 37.5905 22.3062 36.5857 21.7213 35.7271C21.6056 35.5566 21.4959 35.4166 21.4776 35.4166C21.3984 35.4166 20.7344 36.5492 20.5882 36.9267C20.3628 37.5357 20.2044 38.309 20.1496 39.0459C20.113 39.5939 20.0825 39.7522 19.9729 39.9045C19.6074 40.4221 18.8154 40.3977 18.4499 39.8618C18.3097 39.6548 18.3037 39.6243 18.3341 38.7657C18.3829 37.5235 18.5595 36.8719 19.1809 35.6358C19.5403 34.9172 19.9241 34.3448 20.3323 33.9186C20.6674 33.5776 20.6918 33.5349 20.6308 33.3827C20.3567 32.652 20.18 30.3136 20.3201 29.2358C20.4968 27.884 20.905 26.7818 21.6604 25.6309C22.5437 24.279 23.7378 23.2743 25.1755 22.6775C26.1563 22.2695 26.8265 22.099 29.0684 21.6849C32.8211 20.9847 34.5269 20.2235 36.391 18.4088C36.8601 17.946 37.3292 17.5441 37.4267 17.5137C37.646 17.4406 37.9689 17.4832 38.1517 17.605Z" fill="#43B3A0"/>
<path d="M36.9819 20.4915C36.3849 20.9726 35.5625 21.4963 34.8863 21.8373C34.2588 22.1539 32.8698 22.702 32.2057 22.8907C31.6148 23.0612 29.5191 23.5301 28.8551 23.6336C26.2416 24.0538 24.9562 24.614 23.823 25.8136C23.1773 26.4957 22.7569 27.2142 22.4584 28.152C22.0137 29.5465 21.971 30.7582 22.3183 32.512C22.3427 32.6338 22.3792 32.6703 22.4523 32.6521C22.5071 32.6338 22.8909 32.5364 23.3113 32.4328C26.1441 31.7265 28.3007 30.606 30.1953 28.8705C30.7558 28.3529 30.8716 28.292 31.2493 28.292C31.8768 28.292 32.291 28.9984 31.9986 29.5586C31.7793 29.9727 30.1527 31.3428 29.0074 32.0736C27.5331 33.0174 26.0101 33.6324 23.421 34.3327C23.293 34.3693 23.1895 34.4302 23.1895 34.4667C23.1895 34.5885 23.8108 35.374 24.2251 35.7759C24.7064 36.2448 25.6689 36.8842 26.2294 37.1217C26.4548 37.213 26.8995 37.3653 27.2163 37.4627C27.7341 37.621 27.8804 37.6393 28.6723 37.6393C29.4095 37.6393 29.641 37.6149 30.0735 37.4992C31.8768 37.006 33.345 36.2874 34.74 35.1974C35.331 34.7407 36.4032 33.6264 36.9271 32.9261C37.6277 32.0005 38.31 30.5756 38.5963 29.4308C38.907 28.2311 38.9923 26.5383 38.8156 25.0646C38.6694 23.7981 38.5659 23.3535 38.0724 21.8068C37.9323 21.3623 37.4206 20.1931 37.3718 20.1931C37.3596 20.1931 37.183 20.3271 36.9819 20.4915Z" fill="#43B3A0"/>
</svg>
